<?xml version="1.0" encoding="iso-8859-1"?>
<!-- Uploaded to: SVG Repo, www.svgrepo.com, Generator: SVG Repo Mixer Tools -->
<svg version="1.1" id="Layer_1" xmlns="http://www.w3.org/2000/svg" xmlns:xlink="http://www.w3.org/1999/xlink" 
	 viewBox="0 0 511.988 511.988" xml:space="preserve">
<path style="fill:#5D9CEC;" d="M501.332,85.339H10.656C4.781,85.339,0,90.104,0,96.01v319.984c0,5.906,4.781,10.656,10.656,10.656
	h490.676c5.875,0,10.656-4.75,10.656-10.656V96.01C511.988,90.104,507.207,85.339,501.332,85.339z"/>
<rect x="191.994" y="85.334" style="fill:#E6E9ED;" width="128" height="341.31"/>
<g>
	<path style="fill:#434A54;" d="M245.338,319.997c0,5.906-4.781,10.656-10.688,10.656c-5.875,0-10.656-4.75-10.656-10.656
		c0-5.875,4.781-10.656,10.656-10.656C240.557,309.341,245.338,314.122,245.338,319.997z"/>
	<path style="fill:#434A54;" d="M287.992,319.997c0,5.906-4.779,10.656-10.654,10.656c-5.906,0-10.688-4.75-10.688-10.656
		c0-5.875,4.781-10.656,10.688-10.656C283.213,309.341,287.992,314.122,287.992,319.997z"/>
	<path style="fill:#434A54;" d="M245.338,287.966c0,5.906-4.781,10.688-10.688,10.688c-5.875,0-10.656-4.781-10.656-10.688
		c0-5.875,4.781-10.655,10.656-10.655C240.557,277.311,245.338,282.091,245.338,287.966z"/>
	<path style="fill:#434A54;" d="M287.992,287.966c0,5.906-4.779,10.688-10.654,10.688c-5.906,0-10.688-4.781-10.688-10.688
		c0-5.875,4.781-10.655,10.688-10.655C283.213,277.311,287.992,282.091,287.992,287.966z"/>
	<path style="fill:#434A54;" d="M245.338,128.009c0,5.875-4.781,10.656-10.688,10.656c-5.875,0-10.656-4.781-10.656-10.656
		c0-5.906,4.781-10.671,10.656-10.671C240.557,117.338,245.338,122.103,245.338,128.009z"/>
	<path style="fill:#434A54;" d="M287.992,128.009c0,5.875-4.779,10.656-10.654,10.656c-5.906,0-10.688-4.781-10.688-10.656
		c0-5.906,4.781-10.671,10.688-10.671C283.213,117.338,287.992,122.103,287.992,128.009z"/>
	<path style="fill:#434A54;" d="M245.338,160.008c0,5.875-4.781,10.656-10.688,10.656c-5.875,0-10.656-4.781-10.656-10.656
		c0-5.906,4.781-10.671,10.656-10.671C240.557,149.337,245.338,154.102,245.338,160.008z"/>
	<path style="fill:#434A54;" d="M287.992,160.008c0,5.875-4.779,10.656-10.654,10.656c-5.906,0-10.688-4.781-10.688-10.656
		c0-5.906,4.781-10.671,10.688-10.671C283.213,149.337,287.992,154.102,287.992,160.008z"/>
</g>
<g>
	<path style="fill:#4A89DC;" d="M357.336,117.338c0,5.89-4.781,10.671-10.656,10.671c-5.906,0-10.688-4.781-10.688-10.671
		c0-5.891,4.781-10.671,10.688-10.671C352.555,106.666,357.336,111.448,357.336,117.338z"/>
	<path style="fill:#4A89DC;" d="M495.988,117.338c0,5.89-4.766,10.671-10.656,10.671s-10.656-4.781-10.656-10.671
		c0-5.891,4.766-10.671,10.656-10.671S495.988,111.448,495.988,117.338z"/>
	<path style="fill:#4A89DC;" d="M175.996,117.338c0,5.89-4.781,10.671-10.687,10.671c-5.875,0-10.656-4.781-10.656-10.671
		c0-5.891,4.781-10.671,10.656-10.671C171.215,106.666,175.996,111.448,175.996,117.338z"/>
	<path style="fill:#4A89DC;" d="M37.312,117.338c0,5.89-4.766,10.671-10.656,10.671c-5.891,0-10.656-4.781-10.656-10.671
		c0-5.891,4.766-10.671,10.656-10.671C32.546,106.666,37.312,111.448,37.312,117.338z"/>
</g>
<path style="fill:#656D78;" d="M170.652,234.662c0,41.242-33.421,74.677-74.654,74.677s-74.654-33.435-74.654-74.677
	c0-41.233,33.421-74.67,74.654-74.67S170.652,193.429,170.652,234.662z"/>
<g>
	<path style="fill:#434A54;" d="M95.998,319.997c-47.061,0-85.342-38.28-85.342-85.333c0-47.045,38.281-85.326,85.342-85.326
		c47.062,0,85.342,38.28,85.342,85.326C181.34,281.716,143.059,319.997,95.998,319.997z M95.998,170.664
		c-35.28,0-63.999,28.718-63.999,63.999c0,35.296,28.718,63.991,63.999,63.991s63.999-28.694,63.999-63.991
		C159.996,199.382,131.278,170.664,95.998,170.664z"/>
	<path style="fill:#434A54;" d="M148.778,298.091c-2.734,0-5.468-1.031-7.546-3.125l-52.764-52.757
		c-4.188-4.171-4.188-10.921,0-15.093c4.156-4.156,10.906-4.156,15.062,0l52.78,52.787c4.172,4.156,4.172,10.906,0,15.062
		C154.231,297.06,151.496,298.091,148.778,298.091z"/>
</g>
<path style="fill:#656D78;" d="M468.785,287.466c-29.154,29.155-76.436,29.155-105.59,0c-29.172-29.163-29.172-76.443,0-105.599
	c29.154-29.156,76.436-29.156,105.59,0C497.957,211.022,497.957,258.303,468.785,287.466z"/>
<g>
	<path style="fill:#434A54;" d="M415.99,319.997c-22.797,0-44.219-8.875-60.342-24.999c-16.125-16.125-25-37.538-25-60.334
		s8.875-44.218,25-60.342c16.123-16.109,37.545-24.983,60.342-24.983c22.781,0,44.217,8.875,60.342,24.983
		c16.125,16.125,25,37.546,25,60.342c0,22.796-8.875,44.209-25,60.334C460.207,311.122,438.771,319.997,415.99,319.997z
		 M415.99,170.664c-17.094,0-33.156,6.656-45.25,18.75c-12.092,12.093-18.748,28.155-18.748,45.249s6.656,33.171,18.748,45.241
		c12.094,12.094,28.156,18.75,45.25,18.75s33.154-6.656,45.248-18.75c12.094-12.069,18.75-28.147,18.75-45.241
		s-6.656-33.156-18.75-45.249C449.144,177.32,433.084,170.664,415.99,170.664z"/>
	<path style="fill:#434A54;" d="M415.99,319.966c-5.891,0-10.656-4.781-10.656-10.688v-74.615c0-5.89,4.766-10.671,10.656-10.671
		s10.656,4.781,10.656,10.671v74.615C426.646,315.184,421.881,319.966,415.99,319.966z"/>
</g>
<path style="fill:#CCD1D9;" d="M277.338,224.007c0,11.781-9.562,21.327-21.344,21.327c-11.781,0-21.343-9.546-21.343-21.327
	c0-11.797,9.562-21.344,21.343-21.344C267.775,202.663,277.338,212.21,277.338,224.007z"/>
<g>
	<path style="fill:#AAB2BC;" d="M255.994,256.007c-17.656,0-31.999-14.359-31.999-31.999c0-17.656,14.343-32,31.999-32
		s31.998,14.343,31.998,32C287.992,241.646,273.65,256.007,255.994,256.007z M255.994,213.335c-5.875,0-10.656,4.781-10.656,10.672
		c0,5.875,4.781,10.656,10.656,10.656c5.875,0,10.656-4.781,10.656-10.656C266.65,218.116,261.869,213.335,255.994,213.335z"/>
	<path style="fill:#AAB2BC;" d="M255.994,224.007c-5.891,0-10.656,4.766-10.656,10.656v10.671c0,5.891,4.765,10.672,10.656,10.672
		c5.891,0,10.656-4.781,10.656-10.672v-10.671C266.65,228.772,261.885,224.007,255.994,224.007z"/>
	<path style="fill:#AAB2BC;" d="M234.651,393.839c-5.875,0-10.656-4.781-10.656-10.656v-31.186c0-5.906,4.781-10.656,10.656-10.656
		c5.906,0,10.688,4.75,10.688,10.656v31.186C245.338,389.057,240.557,393.839,234.651,393.839z"/>
	<path style="fill:#AAB2BC;" d="M277.338,394.682c-5.906,0-10.688-4.781-10.688-10.656V352.84c0-5.875,4.781-10.656,10.688-10.656
		c5.875,0,10.654,4.781,10.654,10.656v31.186C287.992,389.901,283.213,394.682,277.338,394.682z"/>
</g>
<rect x="0" y="362.655" style="fill:#656D78;" width="63.999" height="63.999"/>
<rect x="63.994" y="362.655" style="fill:#434A54;" width="63.999" height="63.999"/>
<g>
	<rect x="127.994" y="362.655" style="fill:#656D78;" width="63.998" height="63.999"/>
	<rect x="319.994" y="362.655" style="fill:#656D78;" width="63.998" height="63.999"/>
</g>
<rect x="383.994" y="362.655" style="fill:#434A54;" width="63.998" height="63.999"/>
<rect x="447.984" y="362.655" style="fill:#656D78;" width="64" height="63.999"/>
</svg>